<svg width="18" height="18" viewBox="0 0 18 18" fill="none" xmlns="http://www.w3.org/2000/svg">
<path d="M16.9048 4.815C16.8157 4.45906 16.6343 4.13293 16.3788 3.86955C16.1233 3.60618 15.8029 3.41489 15.4498 3.315C14.1598 3 8.99982 3 8.99982 3C8.99982 3 3.83982 3 2.54982 3.345C2.19675 3.44489 1.8763 3.63618 1.62083 3.89955C1.36536 4.16293 1.18391 4.48906 1.09482 4.845C0.858729 6.15417 0.743245 7.48223 0.749818 8.8125C0.741403 10.1528 0.856894 11.491 1.09482 12.81C1.19304 13.1549 1.37855 13.4686 1.63343 13.7209C1.8883 13.9731 2.20393 14.1554 2.54982 14.25C3.83982 14.595 8.99982 14.595 8.99982 14.595C8.99982 14.595 14.1598 14.595 15.4498 14.25C15.8029 14.1501 16.1233 13.9588 16.3788 13.6954C16.6343 13.4321 16.8157 13.1059 16.9048 12.75C17.1391 11.4507 17.2546 10.1328 17.2498 8.8125C17.2582 7.47222 17.1427 6.13402 16.9048 4.815Z" fill="#0D4774"/>
<path d="M7.3125 11.265L11.625 8.8125L7.3125 6.36V11.265Z" fill="white"/>
</svg>
